<?xml version="1.0" encoding="utf-8"?>
<!-- Generator: Adobe Illustrator 28.2.0, SVG Export Plug-In . SVG Version: 6.00 Build 0)  -->
<svg version="1.1" id="Layer_1" xmlns="http://www.w3.org/2000/svg" xmlns:xlink="http://www.w3.org/1999/xlink" x="0px" y="0px"
	 viewBox="0 0 1500 1500" style="enable-background:new 0 0 1500 1500;" xml:space="preserve">
<style type="text/css">
	.st0{fill:#397BB7;}
	.st1{fill:#7E6D6D;stroke:#869173;stroke-miterlimit:10;}
	.st2{fill:#212325;stroke:#869173;stroke-miterlimit:10;}
	.st3{fill:#C1874E;stroke:#869173;stroke-miterlimit:10;}
	.st4{fill:#CCC0AF;stroke:#869173;stroke-miterlimit:10;}
	.st5{fill:#B77539;stroke:#869173;stroke-miterlimit:10;}
	.st6{fill:#222426;stroke:#869173;stroke-miterlimit:10;}
	.st7{fill:#B1AFAE;stroke:#869173;stroke-miterlimit:10;}
	.st8{fill:#89021A;stroke:#869173;stroke-miterlimit:10;}
	.st9{stroke:#869173;stroke-width:1.1841;stroke-miterlimit:10;}
	.st10{fill:none;}
	.st11{stroke:#869173;stroke-width:0.9396;}
	.st12{stroke:#869173;}
</style>
<g>
	<circle class="st0" cx="750" cy="752.5" r="750"/>
	<g>
		<path class="st1" d="M797.6,742l-92.7-10.7l-92.6-10.7L519.7,710c-4.7-6.5-0.1-10.7,9.6-13.3c9.7-2.6,24.3-3.4,39.6-3.7
			c15.3-0.2,31,0.5,43.1,1.2s20.2,1.4,20.2,1.4s-1.2-2.2-2.8-5.4s-3.8-7.3-5.6-11.2s-3.3-7.6-4-9.7c-0.7-2.1-0.2-2.7,1.8-0.7
			s6.9,4.4,13,6.6c6.2,2.2,13.5,4.6,20.6,6.6s14,3.8,19.1,5.1s8.4,2,8.4,2c25.5,3.6,52.2,10.3,77.7,17.5
			c26.1,7.1,48.5,13.1,69.6,18.6c20.5,5.3,38.1,14.6,48.9,19.5c10.9,4.9,15.4,8.2,11.6,7.9L797.6,742z"/>
		<path class="st1" d="M519.6,709.8c-6.6,3.3,75.3,50.1,98.8,49.5c15.6-0.4,138.4,4.7,165.8,4c64.4-1.5,116.4-11.2,106.1-10.8
			L519.6,709.8z"/>
		<path class="st2" d="M659,690.6c-3.2,0.6-47.7,14-47,3.9s-43.2-16.7-43.2-16.7c-12.7-24.2-38.6-19.4-38.6-19.4
			s-44.9-15.3-54.9-10.7c-10.1,4.6-85.6-14.1-85.6-14.1c-46.1,6.6-78.9-19.4-78.9-19.4c-37.4-52.1-60.9-20-60.9-20l-27.5,10.7
			c-10.7,2-12.3-9.4-12.3-9.4c-18.9-36.7,3-50.8,3-50.8c-10.1-43.5,8.6-41.4,8.6-41.4c-2-25.3,12.7-29.4,12.7-29.4
			c-26.1-24.7,7.3-36.1,7.3-36.1c0-34.8,20-14.8,20-25.5s8.6-15.4,16.7-20.7c8.1-5.3,22.7-6,26.8-4c4,2,16.1,32.4,16.1,32.4
			c20.4,22.6,17.2,42.9,24,52.1c7.1,9.6,21.4,36.1,21.4,36.1l13.4,20c19.4,44.1,49.5,46.8,49.5,46.8c90.9,28.8,194,92.2,194,92.2
			S661.9,689.8,659,690.6z"/>
		<path class="st3" d="M553.5,695.3c-10.1,0.2-12.2,0.1-14.2,0.5c-2.4,0.1-8.5,2.8-17.1,1.2c-8.5-1.7-19.3-7.6-30.7-24.7
			c-13.3-20-5.7-24.7,6.4-23.9s28.4,7.2,32.6,9.4c9.5-3.1,18.8,0.2,25.9,5.1c7.2,4.9,12.1,11.2,12.7,14.3c0.1,1.1,9.1,1.3,19.2,2.5
			c10.1,1.2,21.4,3.3,26.4,8.2v2.5v4.9C581.5,697,563.6,695.2,553.5,695.3z"/>
		<path class="st4" d="M386.6,748.1c21.9,35.6,124.2,34.2,148.4,31.5c3.3-0.4,9.5-0.7,10.1-0.8c0,0,85.3-22.4,75.3-19.7
			c-14.8,4-90.7-37.9-99.6-49.3c-8.9-11.4,14.9-13.4,14.9-13.4c-17.1,3.7-34-10.2-42.6-22.6c-0.2-0.2-5.9-21.9,2.6-25.6
			c0,0-13.3-3.1-22.5-1.9c-21.8,2.8-69.2-13.4-83.5-12.9c-4.4,0.1-28.3,0.2-28.3,0.2C344.9,665.7,357.4,700.7,386.6,748.1z"/>
		<g>
			<path class="st5" d="M153.9,777.6c22.9-70.2,60.4-122.6,60.9-126.1c-7.3-2.6,6-46.4,6-46.4l27.2-10.2
				c27.9-26.6,51.2,3.7,63.2,18.2c12.1,14.6,51.9,20.4,51.9,20.4c-21,27.7,2.7,77.6,16.3,102.5c20,36.6,75.7,46.5,165.5,42.9
				l-44.2,9.9c-37.9,4.5-44.8,5.9-66.2,10.2c-33.2,21.6-26.8,21-57.8,64.9C338.3,918.5,132.3,878.8,153.9,777.6"/>
		</g>
		<path class="st6" d="M379,860.8l-38.2,74.1c0,45.5-112.4,76.4-112.4,76.4c82.5,50.8,115.9,192.2,115.9,192.2H228.5
			c0,0-9.4-11.6-8.1-23.7c1.3-12.1-1.8-27.2-1.8-27.2c-30.3-28.5-22.7-40.6-22.7-40.6c18.2-11.6-15.3-128.6-15.3-128.6
			c-80.3-0.4-24.7-222.4-27.1-204.5C139.6,881.8,347,912.9,379,860.8z"/>
		<path class="st7" d="M224.3,1008.9c118.2-30.2,109.3-67.6,117.1-75.2c-4,37.4-1.7,46.8-1.7,46.8c-5.9,73.1,23.9,157.4,23.9,157.4
			c21,47.7,18.2,65.6,18.2,65.6h-39.3C299.9,1054.6,224.3,1008.8,224.3,1008.9z"/>
		<path class="st8" d="M477.2,685c0.7-1.5,5.2-12.7,0.5-20.5c-8.1-13.4-35.5-10.2-39.1,1.2c0,0,0,0-0.1-0.2"/>
		<path class="st8" d="M438.6,665.5c-8.9,34.6,34,27.9,38.6,19.3"/>
		<polygon class="st4" points="438.2,665.5 438.6,665.8 438.6,665.6 438.6,665.4 		"/>
		<path class="st9" d="M456.1,676.9c-1.7-0.9-2.4-3.1-2.4-5.2c0-2.2,1.7-3.4,4.4-4.1c0.9-0.2,5,0.5,5.4,2.1c0.6,1.8,0.4,3.4,0.2,3.7
			C463.1,676.5,458.9,678.5,456.1,676.9z"/>
		<line class="st10" x1="520.7" y1="709.9" x2="890.2" y2="752.5"/>
	</g>
	<g>
		<path class="st11" d="M610.4,400.5l-44,169.9l-59.6,3.4l-54.1-171.6l57-5.4l23.1,100.1l22.4-100.1L610.4,400.5z"/>
		<path class="st11" d="M757.1,478.1c0,7.4-0.8,14.5-2.5,21.4s-4.1,13.3-7.3,19.3s-7,11.5-11.5,16.5s-9.6,9.3-15.3,12.9
			c-5.6,3.6-11.8,6.4-18.5,8.4s-13.7,3-21.2,3c-7.2,0-14.1-0.9-20.6-2.8c-6.5-1.9-12.6-4.5-18.3-7.9s-10.8-7.4-15.4-12.2
			c-4.6-4.8-8.5-10-11.8-15.9c-3.2-5.8-5.8-12.1-7.6-18.7c-1.8-6.7-2.7-13.6-2.7-20.9c0-7.1,0.8-14,2.5-20.8s4.1-13.2,7.3-19.2
			s7-11.6,11.5-16.6s9.5-9.4,15.1-13.1s11.6-6.5,18.1-8.5s13.3-3.1,20.6-3.1c11.6,0,22.2,1.8,31.8,5.5s17.8,8.9,24.5,15.7
			c6.8,6.8,12,15,15.7,24.7S757.1,466.2,757.1,478.1z M703.7,481.3c0-3.5-0.5-6.9-1.5-10.2c-1-3.3-2.5-6.2-4.4-8.8
			c-1.9-2.6-4.3-4.6-7.2-6.2c-2.8-1.6-6.1-2.4-9.8-2.4c-3.8,0-7.1,0.7-10.1,2.1s-5.5,3.3-7.6,5.7c-2.1,2.4-3.7,5.2-4.9,8.4
			c-1.1,3.2-1.7,6.6-1.7,10.2c0,3.4,0.5,6.8,1.4,10.3c1,3.4,2.4,6.5,4.3,9.3c1.9,2.8,4.3,5,7.2,6.7c2.8,1.7,6.1,2.6,9.9,2.6
			c3.8,0,7.2-0.8,10.2-2.3s5.5-3.5,7.6-6.1s3.7-5.5,4.8-8.9C703.1,488.3,703.7,484.9,703.7,481.3z"/>
		<path class="st11" d="M910.8,544.3c-3.8,4.8-8.4,9-13.9,12.6s-11.5,6.6-17.8,8.9c-6.3,2.4-12.8,4.1-19.5,5.3s-13,1.8-19,1.8
			c-11.6,0-22.3-2-32.1-6s-18.2-9.5-25.3-16.7c-7.1-7.1-12.6-15.6-16.7-25.5c-4-9.8-6-20.6-6-32.2c0-8.9,1-17.5,3-25.9
			s4.9-16.2,8.6-23.6c3.7-7.3,8.3-14,13.6-20.1c5.4-6.1,11.5-11.4,18.3-15.7c6.8-4.4,14.3-7.8,22.4-10.2c8.1-2.4,16.8-3.6,25.9-3.6
			c3.4,0,7.1,0.1,11.1,0.4c3.9,0.3,7.8,0.8,11.7,1.5s7.7,1.6,11.4,2.9c3.7,1.2,7.1,2.7,10.1,4.5l-3.4,46.6
			c-4.5-1.7-9.1-2.9-13.9-3.5c-4.8-0.6-9.4-0.9-14-0.9c-6.4,0-12.4,0.9-18,2.6c-5.6,1.8-10.4,4.3-14.5,7.8
			c-4.1,3.4-7.4,7.7-9.8,12.8c-2.4,5.1-3.6,11.1-3.6,17.8c0,4.2,0.6,8.3,1.7,12.3c1.1,3.9,2.8,7.4,5.1,10.5s5.1,5.5,8.5,7.4
			s7.4,2.8,11.8,2.8c3,0,6.2-0.4,9.4-1.2s6-2.2,8.4-4.2l0.5-9.5l-28.9-0.5l1.4-36.6c11.9-0.4,23.9-0.8,35.8-1
			c11.9-0.3,24-0.7,36.1-1.2L910.8,544.3z"/>
		<path class="st11" d="M1054.1,473c0,7.1-0.5,14.2-1.4,21.2c-13.7,0.9-27.3,2.3-40.9,4.3c-13.5,2-27.1,4-40.6,5.9
			c2.1,5.9,5.3,10.5,9.8,14c4.4,3.5,9.8,5.2,15.9,5.2c3.2,0,6.7-0.6,10.5-1.8s7.6-2.7,11.4-4.6s7.4-3.8,10.8-5.9s6.4-4,8.9-5.7
			l-5.8,55.4c-3.1,2.4-6.5,4.5-10.2,6.2c-3.6,1.7-7.4,3.1-11.4,4.2c-3.9,1.1-7.9,1.8-11.9,2.3s-7.9,0.7-11.8,0.7
			c-7.9,0-15.2-1.1-21.8-3.3s-12.5-5.3-17.9-9.2c-5.3-3.9-10-8.6-14-14s-7.3-11.2-10-17.6c-2.6-6.3-4.6-13.1-6-20.1
			c-1.4-7.1-2-14.2-2-21.5c0-7.6,0.7-15.1,2-22.7c1.4-7.6,3.4-14.9,6.2-21.9s6.3-13.5,10.5-19.5s9.1-11.2,14.7-15.7
			c5.6-4.5,12-8,19.1-10.5s14.9-3.8,23.5-3.8c7.1,0,13.6,1,19.5,3s11.1,4.8,15.7,8.3c4.6,3.5,8.6,7.8,12,12.6s6.2,10.2,8.4,16.1
			c2.2,5.8,3.8,12,4.9,18.4S1054.1,466.3,1054.1,473z M1006,466.6c0-2.3-0.2-4.6-0.7-7s-1.3-4.6-2.3-6.5c-1.1-2-2.5-3.6-4.3-4.8
			c-1.8-1.3-4-1.9-6.6-1.9c-3.2,0-6,0.9-8.5,2.6c-2.4,1.8-4.6,3.9-6.3,6.6c-1.8,2.6-3.2,5.5-4.3,8.6s-2,5.9-2.5,8.5l35.6-3.4v-2.7
			H1006z"/>
		<path class="st11" d="M1167.4,506.9l-5,54.2l-101.2,8.1l3.8-174.3h62.5l-8.9,112.1L1167.4,506.9L1167.4,506.9z"/>
		<path class="st11" d="M1296.3,509.1c0,11.2-1.9,20.8-5.7,28.9c-3.8,8.1-9,14.8-15.6,20s-14.3,9.1-23.2,11.6
			c-8.9,2.5-18.4,3.7-28.6,3.7c-3.9,0-8.2-0.5-12.9-1.6s-9.4-2.4-14.2-4s-9.4-3.3-13.9-5.1c-4.4-1.8-8.4-3.6-11.8-5.2l5.3-47.9
			c6.8,4.2,14.4,7.3,22.7,9.5c8.3,2.2,16.4,3.2,24.5,3.2c1.5,0,3.4-0.1,5.5-0.2s4.2-0.5,6.2-1.1s3.6-1.5,5-2.7s2-3,2-5.2
			c0-1.5-0.5-2.9-1.4-4s-2.2-2-3.7-2.7s-3.2-1.2-5.2-1.6c-1.9-0.4-3.8-0.6-5.7-0.8c-1.8-0.2-3.6-0.2-5.2-0.2s-2.9,0-3.8,0
			c-6.9,0-13.2-1.1-18.8-3.3c-5.7-2.2-10.5-5.3-14.5-9.3s-7.2-8.9-9.4-14.6c-2.2-5.7-3.4-12.1-3.4-19.1c0-9.6,1.9-18.2,5.7-25.8
			c3.8-7.6,8.9-14.1,15.3-19.4s13.7-9.4,21.9-12.3c8.3-2.8,16.8-4.3,25.6-4.3c3.9,0,8,0.1,12.1,0.4c4.2,0.3,8.3,0.8,12.4,1.5
			s8.2,1.7,12.1,2.8c3.9,1.1,7.7,2.6,11.2,4.3l-4.6,49.6c-5.5-1.9-11.2-3.4-17.1-4.7c-6-1.3-11.8-1.9-17.5-1.9c-1,0-2.4,0-4,0.1
			c-1.6,0-3.4,0.2-5.2,0.4c-1.8,0.2-3.6,0.5-5.5,0.9c-1.8,0.4-3.5,1-4.9,1.6c-1.4,0.7-2.6,1.6-3.5,2.7s-1.3,2.5-1.2,4
			c0.1,1.8,0.7,3.2,2,4.2c1.2,1,2.8,1.7,4.8,2.1s4.1,0.7,6.5,0.7s4.7-0.1,7-0.2s4.5-0.2,6.5-0.4c2-0.1,3.6-0.1,4.9-0.1
			c6.4,0.4,12.2,1.8,17.3,4.2c5.1,2.4,9.5,5.5,13,9.4c3.6,3.9,6.3,8.6,8.2,14C1295.3,496.6,1296.3,502.6,1296.3,509.1z"/>
	</g>
	<g>
		<path class="st12" d="M910.7,876.1c0-2.9,0.9-5.4,2.8-7.5c1.9-2.1,4.2-3.1,6.8-3.1c2.7,0,5,1,6.9,3.1s2.9,4.5,2.9,7.5
			c0,2.8-1,5.2-2.9,7.3s-4.3,3.1-6.9,3.1c-2.7,0-5-1-6.8-3.1C911.6,881.3,910.7,878.8,910.7,876.1z M929.2,984.3
			c-0.1,3.1-1,5.3-2.7,6.9c-1.7,1.5-3.5,2.3-5.5,2.3c-1.9,0-3.6-0.7-5.2-2.1c-1.6-1.4-2.6-3.5-3-6.5c-0.1-12.5-0.2-25.2-0.3-38.2
			s-0.2-25.7-0.3-38.2c0.7-2.7,1.7-4.6,3.2-6c1.5-1.3,3.1-2,5-2c1.7,0,3.4,0.6,4.9,1.8s2.6,3.1,3.3,5.6c0.1,12.5,0.2,25.2,0.3,38.2
			S929.1,971.8,929.2,984.3z"/>
		<path class="st12" d="M1025,991.5c-1.7,1.5-3.5,2.3-5.5,2.3c-1.9,0-3.6-0.7-5.2-2.1c-1.6-1.4-2.6-3.5-3-6.5c0-6.1,0-12.2-0.1-18.2
			s-0.1-12.1-0.1-18.2c0-4.4,0-8.8,0.1-13.1c0.1-4.4-0.2-8.8-0.9-13.1c-1.1-2-2.2-3.2-3.5-3.7s-2.8-0.7-4.5-0.7
			c-4.6,0-9.1,1.1-13.5,3.3s-7.9,5.2-10.5,9c-1.5,2.3-2.6,4.1-3.5,5.7c-0.9,1.5-1.4,3.7-1.7,6.7c0,6.8,0,13.5,0,20.3
			s0.1,13.5,0.2,20.3c-0.1,3.1-1,5.3-2.7,6.9c-1.7,1.5-3.5,2.3-5.5,2.3c-1.9,0-3.6-0.7-5.2-2.1s-2.6-3.5-3-6.5c0-6.4,0-12.5,0-18.5
			s0-11.9-0.1-17.7s-0.1-11.8-0.1-17.8s0-12.2,0-18.6c0.7-2.7,1.7-4.6,3.2-6c1.5-1.3,3.1-2,5-2c1.7,0,3.4,0.6,4.9,1.8
			s2.6,3.1,3.3,5.6v1.6c3.9-3.3,8.3-5.9,13.2-7.9c4.9-1.9,9.8-2.9,14.8-2.9s9.6,1.1,14,3.4c4.4,2.3,7.9,5.9,10.6,10.9
			c0.9,1.7,1.6,3.9,1.9,6.5s0.5,5.3,0.6,8.2s0,5.8-0.1,8.8s-0.2,5.8-0.2,8.5v23.5v13.3C1027.6,987.7,1026.7,990,1025,991.5z"/>
		<path class="st12" d="M1189.3,976.5c1.7,2.4,2.4,4.7,2.1,6.9s-1.2,3.9-2.6,5.2s-3.2,1.9-5.4,1.8c-2.2-0.1-4.4-1.2-6.5-3.3
			c-0.7-0.7-1.3-1.4-1.8-2.1c-0.5-0.7-0.9-1.4-1.2-2.1c-4,3.4-8.7,6.1-14,8.1c-5.3,1.9-10.7,2.9-16.1,2.9s-10.6-1.1-15.6-3.3
			s-9.1-5.6-12.5-10.2c-2.5-3.6-4.4-7.6-5.5-12s-1.7-9-1.7-13.5c0-4.6,0.6-9.1,1.7-13.5s2.6-8.6,4.3-12.4c1.6-3.4,3.9-6.6,6.9-9.3
			c3-2.8,6.2-5,9.6-6.8c3.1-1.7,6.5-3.1,10.4-4.3c3.8-1.1,7.5-1.8,11-1.9c3.2,0,6.4,0.1,9.7,0.2c3.2,0.1,6.4,0.7,9.5,1.6
			c-0.1-9.5-0.2-17.6-0.3-24.2c-0.1-6.6-0.1-11-0.1-13.2c0.5-2.5,1.6-4.4,3.1-5.8c1.5-1.3,3.1-2,4.8-2.1c1.7-0.1,3.3,0.5,4.9,1.7
			s2.8,3.1,3.6,5.6v104c0.3,0.4,0.6,0.8,0.9,1.1C1188.7,975.7,1189,976.1,1189.3,976.5z M1171.6,962.2v-2.8c0-4.9,0-10.3,0-16.2
			s-0.1-11.5-0.2-16.8l-1.2-0.6c-0.4-0.3-0.8-0.5-1.1-0.8c-0.3-0.3-0.7-0.5-1.1-0.8c-4-1.2-8.2-1.7-12.7-1.6
			c-4.4,0.1-8.6,1-12.5,2.5s-7.3,3.7-10.4,6.7c-3,2.9-5.1,6.6-6.3,11.1c-1.1,4.1-1.5,7.7-1.2,10.7c0.3,3.1,0.7,6.6,1.2,10.7
			c0.5,1.1,1,2.1,1.5,3.2c0.5,1.1,1,2.1,1.5,3.2l4,4c1.6,0.5,3.1,1.2,4.6,2c5.4,0.5,10.3,0.3,14.8-0.8s8.8-3.4,13-7
			c0.1-0.3,0.4-0.6,0.9-1.1s1-1,1.5-1.5s1-1,1.5-1.5s0.8-0.8,0.9-0.9L1171.6,962.2z"/>
		<path class="st12" d="M1279.6,967.4c2.8-1.1,5.2-1.2,7.2-0.4s3.5,2.1,4.3,3.8c0.9,1.7,1,3.6,0.4,5.8c-0.6,2.1-2.2,3.9-4.7,5.4
			c-4.4,2.5-9.2,4.8-14.3,7c-5.1,2.1-10.3,3.6-15.5,4.4c-5.2,0.8-10.4,0.8-15.5-0.1c-5.1-0.9-10-2.9-14.7-6.1
			c-5.6-3.8-9.9-9-12.9-15.6s-4.5-13.4-4.6-20.5s1.2-13.9,3.9-20.5c2.7-6.6,7.1-11.8,13-15.8c6.2-4.1,12.9-7.2,20.1-9.2
			c7.2-2.1,14.5-2.3,21.9-0.7c3.6,0.8,6.9,2.5,9.9,5.1c2.9,2.6,5.3,5.6,7.1,9c1.8,3.4,2.8,7,2.9,10.7c0.1,3.8-0.8,7.3-2.8,10.6
			c-2.3,3.7-5.6,6.9-9.9,9.4c-4.3,2.6-9,4.8-14,6.6s-10.1,3.3-15.1,4.5s-9.4,2.3-13.2,3.4c-1.6,0.4-3.2,0.5-4.6,0.2
			c2,4.2,5,7.7,9,10.4s8.9,3.9,14.8,3.5c4.7-0.3,9.4-1.6,14.2-3.9C1271.3,971.9,1275.7,969.6,1279.6,967.4z M1240.3,925
			c-5,2.5-8.6,6.1-11.1,10.6c-2.4,4.6-3.6,9.4-3.6,14.4c0.9-0.7,1.9-1.2,3-1.6c2.4-0.7,4.9-1.4,7.3-2.1c2.5-0.7,5-1.4,7.5-2.1
			c1.6-0.4,3.8-1,6.5-1.8s5.6-1.7,8.5-2.8s5.6-2.3,8-3.7s4-2.9,4.8-4.7c0.3-4.4-0.8-7.4-3.2-9c-2.4-1.6-5.3-2.4-8.6-2.4
			c-3.4,0-6.8,0.6-10.5,1.7C1245.6,922.8,1242.6,923.9,1240.3,925z"/>
		<path class="st12" d="M542.8,1198.1c0,0.1-0.1,0.2-0.2,0.2c0.8,1.9,1,3.6,0.6,5.2s-1.2,2.9-2.3,3.9s-2.6,1.6-4.4,1.9
			c-1.8,0.3-3.8-0.1-5.9-1.2c-1.2-1.2-2.3-2.5-3.4-3.9c-1.1-1.4-2-2.8-2.8-4.3c-2.7,2.3-5.6,4.3-8.6,6.3c-3.1,1.9-6.2,2.9-9.3,3.1
			c-5.4,0.3-10.7,0.3-15.9,0.2c-5.2-0.1-10.2-1.9-14.9-5.2c-3.9-2.8-6.9-6.1-9-9.9s-3.4-7.9-4-12.2c-0.6-4.3-0.6-8.7,0.1-13.2
			s1.8-8.8,3.4-12.9c0.7-1.9,1.5-3.6,2.6-5.4c1.1-1.7,2.1-3.5,3.2-5.4c1.5-2.7,3.1-5.1,5-7.5c1.9-2.3,4-4.3,6.4-6.1
			c1.7-1.2,3.5-2.4,5.1-3.6c1.7-1.2,3.4-2.3,5.1-3.4c1.2-0.8,3-1.6,5.5-2.5s5.2-1.6,8-2.2c2.9-0.6,5.8-0.9,8.6-0.9
			c2.9,0,5.3,0.4,7.3,1.2c1.9-0.3,3.7,0.2,5.5,1.4c1.8,1.2,3.2,3.1,4.1,5.8c0,9-0.1,18.1-0.2,27.2c-0.1,9.1,0.5,18.2,1.8,27.2
			c0.1,1.2,0.6,2.6,1.5,4.3c0.9,1.7,1.8,3.3,2.8,4.9s1.9,3.1,2.7,4.4C542.4,1196.8,542.8,1197.7,542.8,1198.1z M517.3,1184.3
			c0.3-0.1,0.5-0.3,0.6-0.4s0.3-0.3,0.6-0.4c-1.7-8-2.6-16.2-2.5-24.8c0.1-8.6,0.2-16.4,0.3-23.6c-1.2,0-2.5,0.1-4,0.4
			s-2.9,0.6-4.3,1.1s-2.7,0.9-3.8,1.3c-1.1,0.4-2,0.7-2.5,1c-4,1.9-7.4,4.3-10.3,7.3s-5.1,6.3-6.9,9.9s-3.2,7.5-4.1,11.5
			s-1.4,8.1-1.4,12.2c0.3,1.1,0.6,2.1,1,3.2s0.7,2.1,1,3.2c0.7,0.7,1.4,1.4,2.1,2.2c0.7,0.8,1.5,1.5,2.3,2.2c1.2,0.5,2.4,1,3.6,1.4
			s2.4,0.8,3.6,1.2c2.3,0,4.5,0.1,6.6,0.2s4.3-0.1,6.4-0.8c2-1.3,4-2.7,5.9-4C513.5,1187.4,515.4,1185.9,517.3,1184.3z"/>
		<path class="st12" d="M607.6,1185.1c2.3-1.9,4.5-2.7,6.7-2.6s4,0.9,5.3,2.2c1.3,1.3,2.1,3.1,2.2,5.3c0.1,2.2-0.7,4.4-2.6,6.7
			c-4.4,4.8-9.6,8.2-15.6,10.1c-6,2-11.9,2.6-17.7,1.7s-11.2-3.1-16.2-6.9c-5-3.7-8.6-8.8-11.1-15.1c-1.5-3.6-2.5-7.4-3.2-11.3
			c-0.7-4-0.9-7.9-0.6-11.7c0.4-6.4,1.9-12.8,4.5-19.2c2.6-6.4,6.2-12,10.7-16.8s9.8-8.3,15.9-10.4c6.1-2.2,12.8-2.2,20,0.1
			c3.6,1.2,6.9,2.7,9.9,4.4c2.9,1.7,5.8,3.9,8.4,6.6c1.5,2.1,2.2,4.2,2.2,6.2s-0.6,3.6-1.7,4.9c-1.1,1.3-2.7,2.1-4.6,2.5
			c-1.9,0.4-4.1,0-6.5-1.2c-4.4-4.4-8.7-7-12.9-7.9s-8-0.5-11.6,1.1s-6.7,4.1-9.5,7.7c-2.8,3.5-4.9,7.5-6.3,11.9
			c-1.5,4.4-2.2,9.1-2.2,13.9s0.9,9.3,2.8,13.4c1.6,3.7,3.8,6.6,6.5,8.6s5.7,3.2,8.7,3.5c3.1,0.3,6.3-0.1,9.6-1.4
			C602.1,1189.9,605,1187.9,607.6,1185.1z"/>
		<path class="st12" d="M660.7,1207.1c-1.6,1.5-3.4,2.3-5.3,2.4c-1.9,0.1-3.8-0.6-5.4-2c-1.7-1.4-2.7-3.5-3.1-6.5v-110.6
			c0.5-2.5,1.6-4.4,3.1-5.8c1.5-1.3,3.1-2,4.8-2.1s3.3,0.5,4.9,1.7c1.6,1.2,2.8,3.1,3.6,5.6v46.7c2-2,3.9-3.6,5.6-4.8
			c2.7-1.9,5.2-3.3,7.5-4.5c2.3-1.1,5.1-2,8.1-2.7c2.4-0.7,4.9-0.8,7.3-0.4c2.5,0.4,4.9,0.9,7.3,1.6c4,1.2,7.5,3.1,10.4,5.8
			c2.9,2.7,5.3,5.7,7.2,9.2s3.4,7.3,4.3,11.2c0.9,4,1.5,7.8,1.6,11.5c0.1,6.4,0.2,12.6,0.1,18.8c-0.1,6.2,0,12.4,0.1,18.8
			c-0.1,2.9-1,5.1-2.6,6.7s-3.4,2.3-5.3,2.4c-1.9,0.1-3.8-0.6-5.4-2c-1.7-1.4-2.7-3.5-3.1-6.5c0-6.4,0-12.6,0-18.8
			c0-6.2-0.1-12.4-0.2-18.8c-0.1-4.8-1-9.1-2.7-12.9s-4.6-7.1-8.7-9.7c-3.5-0.9-6.6-0.9-9.5,0c-2.8,0.9-5.4,2.4-7.7,4.3
			s-4.5,4.1-6.5,6.7c-2,2.5-4,5-5.8,7.4c-0.3,0.4-0.6,0.8-1,1.1c-0.4,0.3-0.7,0.6-1,0.9v38.6
			C663.2,1203.4,662.3,1205.6,660.7,1207.1z"/>
		<path class="st12" d="M741.4,1133.6c-1.4-1.6-2.1-3.3-2.1-5.2c0-1.9,0.8-3.7,2.3-5.5s3.9-2.7,6.9-2.7h11.3v-31.4
			c0.7-2.7,1.7-4.6,3.2-6c1.5-1.3,3.1-2,5-2c1.7,0,3.4,0.6,4.9,1.8c1.5,1.2,2.6,3.1,3.3,5.6v32h19.3c2.5,0.7,4.4,1.8,5.6,3.3
			c1.2,1.5,1.8,3.2,1.8,4.9c0,1.9-0.7,3.5-2,5s-3.4,2.5-6,3.2h-18.7c-0.1,10.2-0.1,20.7,0,31.5s0.2,21.3,0.2,31.5
			c0,3.1-0.9,5.3-2.7,6.9c-1.8,1.5-3.7,2.3-5.5,2.3c-1.9,0-3.6-0.7-5.2-2.1c-1.6-1.4-2.6-3.5-3-6.5c0-10.3,0-20.9-0.1-31.8
			s-0.1-21.5-0.1-31.8H748C745,1136.2,742.8,1135.2,741.4,1133.6z"/>
		<path class="st12" d="M877.9,1183.4c2.8-1.1,5.2-1.2,7.2-0.4c2,0.8,3.5,2.1,4.3,3.8c0.9,1.7,1,3.6,0.4,5.8
			c-0.6,2.1-2.2,3.9-4.7,5.4c-4.4,2.5-9.2,4.8-14.3,7c-5.1,2.1-10.3,3.6-15.5,4.4s-10.4,0.8-15.5-0.1s-10-2.9-14.7-6.1
			c-5.6-3.8-9.9-9-12.9-15.6s-4.5-13.4-4.6-20.5s1.2-13.9,3.9-20.5s7.1-11.8,13-15.8c6.2-4.1,12.9-7.2,20.1-9.2
			c7.2-2.1,14.5-2.3,21.9-0.7c3.6,0.8,6.9,2.5,9.9,5.1c2.9,2.6,5.3,5.6,7.1,9s2.8,7,2.9,10.7c0.1,3.8-0.8,7.3-2.8,10.6
			c-2.3,3.7-5.6,6.9-9.9,9.4c-4.3,2.6-9,4.8-14,6.6c-5,1.8-10.1,3.3-15.1,4.5s-9.4,2.3-13.2,3.4c-1.6,0.4-3.2,0.5-4.6,0.2
			c2,4.2,5,7.7,9,10.4c4,2.7,8.9,3.9,14.8,3.5c4.7-0.3,9.4-1.6,14.2-3.9C869.7,1187.9,874,1185.6,877.9,1183.4z M838.7,1141
			c-5,2.5-8.6,6.1-11.1,10.6c-2.4,4.6-3.6,9.4-3.6,14.4c0.9-0.7,1.9-1.2,3-1.6c2.4-0.7,4.9-1.4,7.3-2.1c2.5-0.7,5-1.4,7.5-2.1
			c1.6-0.4,3.8-1,6.5-1.8s5.6-1.7,8.5-2.8c2.9-1.1,5.6-2.3,8-3.7s4-2.9,4.8-4.7c0.3-4.4-0.8-7.4-3.2-9s-5.3-2.4-8.6-2.4
			c-3.4,0-6.8,0.6-10.5,1.7C843.9,1138.8,841,1139.9,838.7,1141z"/>
		<path class="st12" d="M913.7,1137.4c-2-1.1-3.5-2.3-4.4-3.8s-1.4-2.9-1.4-4.4c0-2,0.7-3.7,2.2-5.3c1.5-1.5,3.5-2.3,6-2.3
			c1.9,0,4.2,0.7,7,2s5,2.8,6.6,4.4c4.2-3.4,8.4-6.3,12.9-8.6c4.4-2.3,8.9-3.4,13.5-3.4c1.3,0,3.3,0.3,5.8,1s5.1,1.7,7.5,3
			c2.5,1.3,4.7,3.1,6.5,5.2c1.9,2.1,2.8,4.6,2.8,7.4c0,2.3-0.7,4.1-2.2,5.5s-3.3,2.1-5.4,2.1c-1.5,0-2.8-0.4-3.9-1.3
			c-1.1-0.9-2.3-1.8-3.4-2.8c-1.1-1-2.3-1.9-3.6-2.7c-1.3-0.8-2.7-1.2-4.3-1.2c-1.9,0-3.9,0.6-6.1,1.7c-2.2,1.1-4.4,2.5-6.6,4.1
			c-2.2,1.6-4.3,3.3-6.3,5.2c-2,1.9-3.8,3.5-5.2,5v52.9c-0.1,3.1-1,5.3-2.7,6.9c-1.7,1.5-3.5,2.3-5.5,2.3c-1.9,0-3.6-0.7-5.2-2.1
			c-1.6-1.4-2.6-3.5-3-6.5v-54.3c0-0.3,0-0.6-0.1-0.9s-0.1-0.6-0.1-0.9s0-0.6,0.1-0.9s0.1-0.6,0.1-0.9v-5.8
			C914.6,1137.7,914.1,1137.5,913.7,1137.4z"/>
		<path class="st12" d="M995.3,1133.6c-1.4-1.6-2.1-3.3-2.1-5.2c0-1.9,0.8-3.7,2.3-5.5s3.9-2.7,6.9-2.7h11.3v-31.4
			c0.7-2.7,1.7-4.6,3.2-6c1.5-1.3,3.1-2,5-2c1.7,0,3.4,0.6,4.9,1.8c1.5,1.2,2.6,3.1,3.3,5.6v32h19.3c2.5,0.7,4.4,1.8,5.6,3.3
			s1.8,3.2,1.8,4.9c0,1.9-0.7,3.5-2,5s-3.4,2.5-6,3.2h-18.7c-0.1,10.2-0.1,20.7,0,31.5s0.2,21.3,0.2,31.5c0,3.1-0.9,5.3-2.7,6.9
			c-1.8,1.5-3.7,2.3-5.5,2.3c-1.9,0-3.6-0.7-5.2-2.1s-2.6-3.5-3-6.5c0-10.3,0-20.9-0.1-31.8s-0.1-21.5-0.1-31.8h-11.9
			C998.8,1136.2,996.7,1135.2,995.3,1133.6z"/>
		<path class="st12" d="M1151.8,1192.9c1.5,1.9,2.2,3.9,2.2,6.2c0,2.3-0.7,4.1-2.2,5.5s-3.3,2.1-5.4,2.1c-3,0-5.5-1.4-7.6-4.1
			s-4-5.8-5.4-9.2c-3.5,3.7-7.6,6.9-12.3,9.4c-4.7,2.6-9.5,3.9-14.5,3.9c-3.6,0-7.1-0.6-10.5-1.9s-6.5-3-9.4-5.2s-5.4-4.7-7.6-7.7
			c-2.2-2.9-3.9-6-4.9-9.1c-1.1-3.4-1.8-7.3-2.2-11.4s-0.6-8.5-0.6-13c0-5.4,0.1-10.7,0.4-15.9c0.3-5.2,0.4-9.7,0.4-13.7
			c0.7-2.7,1.7-4.6,3.2-6c1.5-1.3,3.1-2,5-2c1.7,0,3.4,0.6,4.9,1.8c1.5,1.2,2.6,3.1,3.3,5.6c0,6.2-0.1,12.2-0.3,18
			s-0.3,11.9-0.3,18.4c0,7.4,1.6,13.5,4.8,18.3c3.2,4.8,7.6,7.2,13.1,7.2c2,0,4-0.4,6-1.2c2-0.8,3.9-1.9,5.6-3.2
			c1.7-1.3,3.3-2.8,4.8-4.6c1.5-1.7,2.8-3.4,4-5.2c0.3-0.3,0.6-0.5,1-0.7s0.7-0.4,1-0.7c-0.8-6.6-1.2-13.3-1.2-20.1
			c0-3.8,0-7.7,0.1-11.6s0.4-7.5,1-10.7s1.6-5.9,3-8s3.4-3.1,5.9-3.1c2,0,3.8,0.8,5.4,2.3s2.4,3.7,2.4,6.7c0,3.1-0.2,6.8-0.7,11.1
			c-0.5,4.4-0.7,9-0.7,13.7c0,3.7,0.1,7.4,0.4,11.1s0.7,7.3,1.3,10.6c0.6,3.4,1.4,6.5,2.4,9.2
			C1148.9,1188.5,1150.2,1190.9,1151.8,1192.9z"/>
		<path class="st12" d="M1169.5,1092.1c0-2.9,0.9-5.4,2.8-7.5s4.2-3.1,6.8-3.1c2.7,0,5,1,6.9,3.1s2.9,4.5,2.9,7.5
			c0,2.8-1,5.2-2.9,7.3c-1.9,2.1-4.3,3.1-6.9,3.1c-2.7,0-5-1-6.8-3.1S1169.5,1094.8,1169.5,1092.1z M1188,1200.3
			c-0.1,3.1-1,5.3-2.7,6.9c-1.7,1.5-3.5,2.3-5.5,2.3c-1.9,0-3.6-0.7-5.2-2.1s-2.6-3.5-3-6.5c-0.1-12.5-0.2-25.2-0.3-38.2
			c-0.1-13-0.2-25.7-0.3-38.2c0.7-2.7,1.7-4.6,3.2-6c1.5-1.3,3.1-2,5-2c1.7,0,3.4,0.6,4.9,1.8c1.5,1.2,2.6,3.1,3.3,5.6
			c0.1,12.5,0.2,25.2,0.3,38.2C1187.8,1175.1,1187.9,1187.8,1188,1200.3z"/>
		<path class="st12" d="M1283.9,1207.5c-1.7,1.5-3.5,2.3-5.5,2.3c-1.9,0-3.6-0.7-5.2-2.1s-2.6-3.5-3-6.5c0-6.1,0-12.2-0.1-18.2
			s-0.1-12.1-0.1-18.2c0-4.4,0-8.8,0.1-13.1c0.1-4.4-0.2-8.8-0.9-13.1c-1.1-2-2.2-3.2-3.5-3.7s-2.8-0.7-4.5-0.7
			c-4.6,0-9.1,1.1-13.5,3.3c-4.4,2.2-7.9,5.2-10.5,9c-1.5,2.3-2.6,4.1-3.5,5.7c-0.9,1.5-1.4,3.7-1.7,6.7c0,6.8,0,13.5,0,20.3
			s0.1,13.5,0.2,20.3c-0.1,3.1-1,5.3-2.7,6.9c-1.7,1.5-3.5,2.3-5.5,2.3c-1.9,0-3.6-0.7-5.2-2.1s-2.6-3.5-3-6.5c0-6.4,0-12.5,0-18.5
			s0-11.9-0.1-17.7c-0.1-5.8-0.1-11.8-0.1-17.8s0-12.2,0-18.6c0.7-2.7,1.7-4.6,3.2-6c1.5-1.3,3.1-2,5-2c1.7,0,3.4,0.6,4.9,1.8
			c1.5,1.2,2.6,3.1,3.3,5.6v1.6c3.9-3.3,8.3-5.9,13.2-7.9c4.9-1.9,9.8-2.9,14.8-2.9s9.6,1.1,14,3.4s7.9,5.9,10.6,10.9
			c0.9,1.7,1.6,3.9,1.9,6.5s0.5,5.3,0.6,8.2c0.1,2.9,0,5.8-0.1,8.8s-0.2,5.8-0.2,8.5v23.5v13.3
			C1286.5,1203.7,1285.6,1206,1283.9,1207.5z"/>
	</g>
</g>
</svg>
